<?xml version="1.0" encoding="UTF-8" standalone="no"?>
<svg
   width="50px"
   height="50px"
   viewBox="0 0 169 160"
   version="1.1"
   id="svg5"
   sodipodi:docname="echange_pokeballs.svg"
   inkscape:version="1.1.2 (b8e25be833, 2022-02-05)"
   xmlns:inkscape="http://www.inkscape.org/namespaces/inkscape"
   xmlns:sodipodi="http://sodipodi.sourceforge.net/DTD/sodipodi-0.dtd"
   xmlns="http://www.w3.org/2000/svg"
   xmlns:svg="http://www.w3.org/2000/svg">
  <sodipodi:namedview
     id="namedview7"
     pagecolor="#ffffff"
     bordercolor="#666666"
     borderopacity="1.0"
     inkscape:pageshadow="2"
     inkscape:pageopacity="0"
     inkscape:pagecheckerboard="false"
     inkscape:document-units="mm"
     showgrid="false"
     showguides="true"
     inkscape:guide-bbox="true"
     inkscape:zoom="10.24"
     inkscape:cx="32.666016"
     inkscape:cy="33.789063"
     inkscape:window-width="1366"
     inkscape:window-height="705"
     inkscape:window-x="-8"
     inkscape:window-y="-8"
     inkscape:window-maximized="1"
     inkscape:current-layer="g151"
     inkscape:snap-global="false"
     width="209mm">
    <sodipodi:guide
       position="-2.4278695,277.95355"
       orientation="0,-1"
       id="guide4298" />
    <sodipodi:guide
       position="203.94104,124.99777"
       orientation="0,-1"
       id="guide4300" />
    <sodipodi:guide
       position="165.90441,287.66502"
       orientation="1,0"
       id="guide4302" />
    <sodipodi:guide
       position="4.0464491,240.92898"
       orientation="1,0"
       id="guide4304" />
  </sodipodi:namedview>
  <defs
     id="defs2" />
  <g
     inkscape:label="Capa 1"
     inkscape:groupmode="layer"
     id="layer1"
     style="display:inline;opacity:1">
    <g
       transform="matrix(0.00621625,0,0,-0.00621625,101.93962,39.538499)"
       id="g47">
      <path
         d="M 4611.3,5000.3 C 3505.9,4920.1 2434.6,4439.1 1620.8,3656.9 1300.1,3350.8 1113.1,3124.9 879.8,2767.8 454.7,2116.7 168,1295.6 114.6,576.5 L 100,362.7 h 1287.6 1287.6 l 29.1,153 c 194.3,1025.2 996,1783.2 2018.8,1911.9 655.9,82.6 1353.2,-143.3 1843.9,-595.2 364.4,-337.7 609.8,-772.5 706.9,-1251.1 l 41.3,-206.5 1292.4,-7.3 c 1117.5,-4.9 1290,0 1290,29.1 0,19.4 -17,165.2 -36.4,323.1 C 9642.5,2388.8 8627,3797.8 7116,4529 c -364.4,177.3 -821.1,330.4 -1197.7,398.4 -240.5,46.2 -835.7,104.5 -976.6,97.2 -34,-2.4 -182.2,-12.1 -330.4,-24.3 z"
         id="path41"
         style="fill:#f2f2f2" />
      <path
         d="M 4752.2,1893.2 C 4045.3,1796 3437.9,1254.3 3248.4,557 c -58.3,-216.2 -58.3,-682.6 0,-898.9 138.5,-510.2 490.7,-942.6 952.3,-1166.1 298.8,-143.3 461.6,-179.8 813.8,-179.8 274.5,2.4 325.5,9.7 522.3,75.3 313.4,106.9 502.9,225.9 740.9,466.4 172.5,172.5 228.3,250.2 323.1,439.7 160.4,325.5 194.4,498 179.8,886.7 -14.6,422.7 -89.9,646.2 -320.7,971.7 -378.8,537.1 -1059.1,831.1 -1707.7,741.2 z"
         id="path43"
         style="fill:#f2f2f2"
         sodipodi:nodetypes="ccccccccccc" />
      <path
         d="m 114.6,-371 c 68,-874.6 481,-1892.5 1054.4,-2594.6 165.2,-204.1 556.3,-595.2 760.4,-760.4 1481.8,-1200 3546.8,-1418.7 5259.4,-558.7 500.4,252.6 867.3,517.5 1275.4,928 821.1,823.5 1302.1,1851.2 1421.2,3034.2 l 14.6,150.6 H 8602.7 7307.9 l -31.6,-174.9 c -123.9,-731.2 -714.2,-1450.3 -1409,-1717.5 -340.1,-131.2 -490.8,-157.9 -877,-157.9 -289.1,0 -388.7,9.7 -558.8,55.9 -913.4,243 -1574.2,969.3 -1734.5,1904.6 l -17,89.9 H 1390 100 Z"
         id="path45"
         style="fill:#f2f2f2" />
      <g
         id="g183"
         transform="matrix(0,-8.4959512,-8.4959512,0,9812.0486,-5439.1774)"
         style="fill:#f2f2f2">
        <g
           id="g151"
           style="fill:#f2f2f2">
          <path
             d="M 10,500 500,990 V 683.8 c 0,0 418.82508,-4.8306 640.2304,-4.8306 v 751.144 l 380.0791,10e-5 c 6.3169,-297.0521 0,-751.1441 0,-1109.0827 -269.0017,0 -751.06334,0.80433 -1020.3095,-4.7308 V 10 Z"
             id="path149"
             sodipodi:nodetypes="cccccccccc"
             style="fill:#f2f2f2" />
          <path
             d="m 263.1239,2510.904 -490,-490 v 306.2 c 0,0 -418.82501,4.8306 -640.23041,4.8306 v -751.1441 l -380.07909,-10e-5 c -6.3169,297.0522 0,751.1442 0,1109.0828 269.00169,0 751.0634,-0.8044 1020.3095,4.7308 v 306.3 z"
             id="path149-3"
             sodipodi:nodetypes="cccccccccc"
             style="fill:#f2f2f2" />
          <path
             d="m 362.49838,2469.9099 c 9.43979,130.109 66.05499,256.2044 158.12237,351.9912 36.02892,37.7474 62.61806,59.7579 104.64984,87.218 76.63651,50.0356 173.28254,83.7811 257.92281,90.0664 l 25.1649,1.7185 v -151.5545 -151.5546 l -18.0085,-3.4251 C 769.68055,2671.5 680.46159,2577.1374 665.3132,2456.7507 c -9.72228,-77.2015 16.86685,-159.2759 70.05689,-217.0328 39.74835,-42.891 90.92566,-71.7754 147.25831,-83.2043 l 24.3057,-4.8612 0.8593,-152.1195 c 0.5767,-131.5332 0,-151.837 -3.4252,-151.837 -2.2834,0 -19.4446,2.001 -38.0299,4.2844 -196.45822,25.7417 -362.30192,145.2692 -448.36644,323.1186 -20.86876,42.891 -38.88911,96.646 -46.89292,140.973 -5.43789,28.3076 -12.29998,98.3645 -11.44075,114.9489 0.28249,4.0019 1.42421,21.4455 2.86019,38.8891 z"
             id="path41-7"
             style="fill:#f2f2f2;stroke-width:0.117703" />
          <path
             d="m 728.21374,2453.3255 c 11.44075,83.2044 75.20053,154.6972 157.27486,177.002 25.4474,6.8621 80.34411,6.8621 105.80331,0 60.05209,-16.3019 110.94689,-57.7569 137.25359,-112.0887 16.8668,-35.1697 21.163,-54.3318 21.163,-95.7868 -0.2825,-32.3095 -1.1417,-38.3124 -8.8631,-61.4763 -12.5824,-36.8882 -26.5891,-59.1929 -54.8967,-87.2063 -20.3038,-20.3038 -29.4493,-26.8716 -51.7541,-38.0299 -38.31229,-18.8795 -58.61609,-22.8814 -104.3672,-21.163 -49.7531,1.7185 -76.0598,10.5815 -114.3721,37.7474 -63.21835,44.586 -97.82307,124.6594 -87.24156,201.0016 z"
             id="path43-8"
             style="fill:#f2f2f2;stroke-width:0.117703"
             sodipodi:nodetypes="ccccccccccc" />
          <path
             d="m 994.71711,2999.1855 c 102.94309,-8.0038 222.75309,-56.6152 305.39239,-124.1061 24.0232,-19.4446 70.0569,-65.4783 89.5015,-89.5015 141.2438,-174.4125 166.9854,-417.4694 65.7607,-619.0478 -29.7318,-58.8986 -60.9114,-102.0839 -109.2285,-150.1185 -96.9285,-96.6461 -217.892,-153.2613 -357.13469,-167.2797 l -17.7261,-1.7185 v 152.6963 152.402 l 20.5863,3.7194 c 86.06449,14.5834 170.70469,84.0636 202.15499,165.8437 15.4427,40.0308 18.5853,57.7687 18.5853,103.2256 0,34.028 -1.1417,45.7512 -6.5796,65.7725 -28.6018,107.5101 -114.0896,185.2883 -224.17719,204.1561 l -10.5815,2.0009 v 151.8371 151.837 z"
             id="path45-5"
             style="fill:#f2f2f2;stroke-width:0.117703" />
        </g>
        <g
           id="g153"
           style="fill:#f2f2f2" />
        <g
           id="g155"
           style="fill:#f2f2f2" />
        <g
           id="g157"
           style="fill:#f2f2f2" />
        <g
           id="g159"
           style="fill:#f2f2f2" />
        <g
           id="g161"
           style="fill:#f2f2f2" />
        <g
           id="g163"
           style="fill:#f2f2f2" />
        <g
           id="g165"
           style="fill:#f2f2f2" />
        <g
           id="g167"
           style="fill:#f2f2f2" />
        <g
           id="g169"
           style="fill:#f2f2f2" />
        <g
           id="g171"
           style="fill:#f2f2f2" />
        <g
           id="g173"
           style="fill:#f2f2f2" />
        <g
           id="g175"
           style="fill:#f2f2f2" />
        <g
           id="g177"
           style="fill:#f2f2f2" />
        <g
           id="g179"
           style="fill:#f2f2f2" />
        <g
           id="g181"
           style="fill:#f2f2f2" />
      </g>
    </g>
  </g>
</svg>
