<svg
   width="50px"
   height="50px"
   viewBox="0 0 169 160"
   version="1.1"
   id="svg5"
   sodipodi:docname="pokeball.svg"
   inkscape:version="1.1.2 (b8e25be833, 2022-02-05)"
   xmlns:inkscape="http://www.inkscape.org/namespaces/inkscape"
   xmlns:sodipodi="http://sodipodi.sourceforge.net/DTD/sodipodi-0.dtd"
   xmlns="http://www.w3.org/2000/svg"
   xmlns:svg="http://www.w3.org/2000/svg">
  <sodipodi:namedview
     id="namedview7"
     pagecolor="#ffffff"
     bordercolor="#666666"
     borderopacity="1.0"
     inkscape:pageshadow="2"
     inkscape:pageopacity="0"
     inkscape:pagecheckerboard="false"
     inkscape:document-units="mm"
     showgrid="false"
     showguides="true"
     inkscape:guide-bbox="true"
     inkscape:zoom="0.65386545"
     inkscape:cx="433.57544"
     inkscape:cy="259.99233"
     inkscape:window-width="1366"
     inkscape:window-height="705"
     inkscape:window-x="-8"
     inkscape:window-y="-8"
     inkscape:window-maximized="1"
     inkscape:current-layer="g47"
     inkscape:snap-global="false"
     width="209mm">
    <sodipodi:guide
       position="-2.4278695,277.95355"
       orientation="0,-1"
       id="guide4298" />
    <sodipodi:guide
       position="203.94104,124.99777"
       orientation="0,-1"
       id="guide4300" />
    <sodipodi:guide
       position="165.90441,287.66502"
       orientation="1,0"
       id="guide4302" />
    <sodipodi:guide
       position="4.0464491,240.92898"
       orientation="1,0"
       id="guide4304" />
  </sodipodi:namedview>
  <defs
     id="defs2" />
  <g
     inkscape:label="Capa 1"
     inkscape:groupmode="layer"
     id="layer1"
     style="display:inline;opacity:1">
    <g
       transform="matrix(0.00645351,0,0,-0.00645351,104.37261,38.470982)"
       id="g47">
      <path
         d="M -4029.8391,4895.3266 C -6602.8641,4708.6457 -9096.5147,3589.0267 -10990.785,1768.3077 -11737.274,1055.8019 -12172.551,529.97652 -12715.6,-301.24166 -13705.099,-1816.8005 -14372.448,-3728.0669 -14496.746,-5401.9089 l -33.984,-497.66 h 2997.129 2997.1279 l 67.735,356.1365 c 452.27,2386.3477 2318.376,4150.737 4699.133,4450.3106 1526.73,192.26734 3149.826,-333.5581 4292.02099,-1385.4412 848.21001,-786.0608 1419.42401,-1798.1403 1645.44201,-2912.1729 l 96.134,-480.668 3008.302,-16.9922 c 2601.189,-11.4057 3002.715,0 3002.715,67.736 0,45.157 -39.571,384.5343 -84.728,752.0765 -509.065,3885.1473 -2872.83,7164.8629 -6389.965,8866.8697 -848.20801,412.6995 -1911.263,769.0688 -2787.869,927.3517 -559.809,107.5393 -1945.248,243.2436 -2273.219,226.2515 -79.141,-5.5864 -424.104,-28.165 -769.067,-56.5627 z"
         id="path41"
         style="fill:#f2f2f2;stroke-width:2.32769" />
      <path
         d="m -3701.8681,-2337.0394 c -1645.442,-226.2513 -3059.279,-1487.161 -3500.375,-3110.2593 -135.704,-503.2466 -135.704,-1588.8813 0,-2092.3606 322.384,-1187.5865 1142.196,-2194.0828 2216.656,-2714.3187 695.512,-333.558 1074.459,-418.518 1894.271,-418.518 638.95,5.586 757.662,22.579 1215.75,175.274 729.497,248.83 1170.594,525.8249 1724.583,1085.6352 401.52599,401.525 531.41099,582.387 752.07599,1023.4846 373.361,757.663 452.50201,1159.1896 418.51801,2063.9625 -33.98501,983.9147 -209.26001,1504.1534 -746.48901,2261.8166 -881.72799,1250.2021 -2465.25299,1934.543 -3974.98999,1725.2837 z"
         id="path43"
         style="fill:#f2f2f2;stroke-width:2.32769"
         sodipodi:nodetypes="ccccccccccc" />
      <path
         d="m -14496.746,-7607.3952 c 158.284,-2035.7986 1119.617,-4405.1548 2454.312,-6039.4248 384.534,-475.08 1294.891,-1385.44 1769.973,-1769.974 3449.1649,-2793.23 8255.8379,-3302.295 12242.2329,-1300.483 1164.774,587.976 2018.802,1204.58 2968.731,2160.097 1911.264,1916.853 3030.881,4309.021 3308.108,7062.6778 l 33.984,350.5502 h -3019.707 -3013.888 l -73.556,-407.113 c -288.399,-1702.0058 -1662.43301,-3375.85 -3279.709,-3997.808 -791.647,-305.392 -1142.429,-367.541 -2041.382,-367.541 -672.934,0 -904.771,22.579 -1300.711,130.118 -2126.108,565.627 -3664.244,2256.2302 -4037.372,4433.3172 l -39.57,209.2594 h -3002.7149 -3002.715 z"
         id="path45"
         style="fill:#f2f2f2;stroke-width:2.32769" />
      <g
         id="g183"
         transform="matrix(0,-8.4959512,-8.4959512,0,9812.0486,-5439.1774)"
         style="fill:#f2f2f2">
        <g
           id="g151"
           style="fill:#f2f2f2" />
        <g
           id="g153"
           style="fill:#f2f2f2" />
        <g
           id="g155"
           style="fill:#f2f2f2" />
        <g
           id="g157"
           style="fill:#f2f2f2" />
        <g
           id="g159"
           style="fill:#f2f2f2" />
        <g
           id="g161"
           style="fill:#f2f2f2" />
        <g
           id="g163"
           style="fill:#f2f2f2" />
        <g
           id="g165"
           style="fill:#f2f2f2" />
        <g
           id="g167"
           style="fill:#f2f2f2" />
        <g
           id="g169"
           style="fill:#f2f2f2" />
        <g
           id="g171"
           style="fill:#f2f2f2" />
        <g
           id="g173"
           style="fill:#f2f2f2" />
        <g
           id="g175"
           style="fill:#f2f2f2" />
        <g
           id="g177"
           style="fill:#f2f2f2" />
        <g
           id="g179"
           style="fill:#f2f2f2" />
        <g
           id="g181"
           style="fill:#f2f2f2" />
      </g>
    </g>
  </g>
</svg>
